v 1140.178025290729 2102.568165964303 254.4957866370232
v 1135.430916113014 2109.279085784829 254.0856440008031
v 1140.189324018863 2066.923875274384 255.4005299343839
v 1140.183438741332 2084.746388557377 254.9398737158445
v 1127.575136976732 2084.754147118433 254.2730245216126
v 1133.876604713666 2093.66112026984 254.384230488716
v 1133.882103521439 2075.839351119358 254.8340562159829
v 1113.538904784302 2077.929473884305 253.6960114289677
v 1119.799374534606 2086.89446239706 253.8073587140154
v 1121.273606174978 2075.847207713194 254.1620478277785
v 1115.082095944382 2093.56473236375 253.3962667867721
v 1108.781280572385 2084.656701688058 253.2777703091713
v 1102.480446739789 2075.748807052876 253.1588960956012
v 1108.788198876051 2066.831010077804 253.7196977046865
v 1096.179598789108 2066.841193284113 253.038706800975
v 1102.487663698011 2057.923281523075 253.6034339782654
v 1089.865583691801 2093.582448907106 252.0774842264173
v 1096.172859900857 2084.665956858196 252.6110580293562
v 1083.564352412531 2084.674669860649 251.9537202723287
v 1089.871769521113 2075.758302432364 252.4885719884073
v 1115.075788821369 2111.389597619325 252.9784149347171
v 1089.859899534967 2111.406082073901 251.6862241935692
v 1140.202180770702 2031.276100769021 256.3565701085436
v 1140.195624904334 2049.100457554048 255.8750525614298
v 1127.586811759284 2049.109558825458 255.2016943652167
v 1133.88810597823 2058.016720452111 255.3009476624932
v 1133.894554942779 2040.193052158378 255.7809466316135
v 1140.214593608788 1995.626330339359 257.2849657446104
v 1140.208643163615 2013.451092191373 256.8320519649438
v 1127.600216681434 2013.46018746283 256.1689501691336
v 1133.901242486866 2022.368277516341 256.2644711873037
v 1133.907646509715 2004.542844915836 256.7334902390215
v 1114.99071605069 2013.469946739662 255.4886322153183
v 1102.379051276766 2013.480047112366 254.7788307588733
v 1108.681729803513 2022.38774901239 254.8936503907119
v 1108.688918859034 2004.56102676201 255.3776873177228
v 1121.298993654486 2004.551591241277 256.0660407451736
v 1121.292160446592 2022.377928303667 255.5897772633757
v 1102.385727833517 1995.649670003761 255.2422938082928
v 1089.771387142238 1995.659979915082 254.4797139849024
v 1096.074998927902 2004.57061050564 254.6454369566982
v 1096.082090727162 1986.741579378577 255.0739870429103
v 1108.69454715181 1986.732946322751 255.8066217263936
v 1114.997249233148 1995.642209190437 255.9482944960522
v 1090.809603024121 2013.506143242003 254.0913468691656
v 1083.59636308797 2013.378732521855 253.6550250399001
v 1088.355301510975 2024.461125747701 253.6606309537335
v 1085.052024926469 2002.332124151542 254.0211422664583
v 1096.069909296631 2022.396054837863 254.1690514550608
v 1089.878741261588 2057.93401840869 252.9152990075251
v 1096.187214818129 2049.015999869628 253.4828765441976
v 1083.577850489117 2049.027404950427 252.7857614668888
v 1089.886842452774 2040.109312594656 253.3547063688301
v 1133.913317783766 1986.718180219289 257.1707753225277
v 1083.469671383555 1986.753729088003 254.3049976487366
v 989.0306587380442 2040.165631984925 248.7044469523996
v 995.3309775480022 2049.073655205045 248.7751990560882
v 989.0270722200571 2057.986605240394 248.3530052555433
v 988.6751315941858 2004.190922296652 249.4613509262134
v 994.8936353696532 2013.654664643719 249.4961379239904
v 989.0343435805305 2022.344124531572 249.0771374780593
v 1064.660214459664 2057.953174438085 251.5844347911904
v 1070.96803094493 2049.037870087875 252.1041948808187
v 1058.358650149654 2049.046621400226 251.4548302007998
v 1064.666429189726 2040.1318700805 251.9620912143093
v 1052.05687712644 2040.140017465904 251.3207681484419
v 1058.36442720253 2031.22587442794 251.8119597812768
v 1045.754861096069 2031.232997566481 251.1869091074876
v 1052.061905551759 2022.319356576344 251.6593960958037
v 1052.06744618886 2004.49494323231 252.0077874740253
v 1058.377940939893 1995.572567754045 252.5677506805242
v 1045.763297140045 1995.580858193254 251.9086385943672
v 1052.073380009955 1986.660789151442 252.4706944435134
v 1026.846494142617 2022.329501134574 250.5348777120112
v 1033.150801864088 2013.415954014328 250.9658968153492
v 1020.545732612115 2013.420372106867 250.4702023516634
v 1026.849701125636 2004.506030947915 250.9033779502684
v 1014.245478402498 2004.511207229513 250.4284634449767
v 1020.549461506292 1995.596496031481 250.8671848634019
v 1007.945637603087 1995.602557023025 250.3956442555128
v 1014.249749448114 1986.687674836483 250.8384854288004
v 1026.839848316832 2057.97218730647 249.8584063993218
v 1033.144216465781 2049.059134545061 250.2912159193161
v 1020.539255272624 2049.064047045291 249.7697197694716
v 1026.843300464482 2040.151068987479 250.1945475930869
v 1013.024644302305 2040.156224923407 249.641577808789
v 1020.542561155178 2031.242664054126 250.1105708995126
v 1006.787502641076 2031.840468730432 249.5643090463245
v 1014.24209788683 2022.333965645168 250.0446900594266
v 1026.854541317483 1986.680032148307 251.3314916666727
v 1039.461753989944 1986.670750556634 251.8631400324424
v 989.042091885343 1986.699763437123 249.8560473784862
v 1064.64507267523 2111.420158292868 250.4491773393578
v 1052.038726068125 2111.425997260221 249.8701972126845
v 1058.343903681027 2102.512203321939 250.3296366161844
v 1045.737820463888 2102.517911070957 249.7659518264489
v 1052.042763708498 2093.60391681707 250.2228608534308
v 1052.047248386499 2075.781959283707 250.5992390181144
v 1058.353328947537 2066.867760098838 251.0836861559941
v 1045.746208788393 2066.874458648183 250.4970789639863
v 1052.051984585055 2057.96068975964 250.9678157288333
v 1020.532550607457 2084.706404686512 249.0954894450133
v 1007.928528486038 2084.710899389474 248.6025755256407
v 1014.228968649792 2093.619418974054 248.6793338670475
v 1014.232153234468 2075.798084862308 249.0158737855848
v 995.3240543502582 2084.715570313456 248.1028896795876
v 989.0196646615125 2093.629296628173 247.6762325433173
v 989.0234866842827 2075.807508037489 248.0150334529617
v 1001.628007650827 2075.802627030931 248.519291091543
v 1001.624718752649 2093.623960629141 248.1879027534817
v 1026.829384144323 2111.43620277227 248.8200140276763
v 1040.21389594513 2111.01354815158 249.3706321028433
v 989.015737573847 2111.452930807048 247.3099729254029
v 1001.620933849986 2111.447304859815 247.8256479801159
v 995.3202811871381 2102.538382751809 247.7583514286194
v 1127.683687364339 2111.380840927231 253.6329164792328
v 1129.170507551339 2100.31398521145 253.9740981213412
v 1124.490394309569 2093.611987629797 253.8907801596399
v 1121.382895934444 2102.472797422848 253.5146658748817
v 1127.580706884089 2066.932342123474 254.7287754209276
v 1121.279206283486 2058.025324586036 254.6234905628739
v 1116.007674256017 2066.95863977499 254.1063382308553
v 1102.47388469819 2093.573803525087 252.733477707067
v 1108.77485530066 2102.481707864856 252.8560147659617
v 1096.166730099201 2102.490278592379 252.2025806554789
v 1110.234464689868 2055.823066071172 254.0807619762398
v 1102.467814153963 2111.39807032737 252.3281781000972
v 1083.570613730117 2066.851009194792 252.364897721648
v 1103.973324530449 2046.857985073953 253.9702703083898
v 1114.977527426181 2049.118256079013 254.517157105484
v 1077.26303461692 2075.767116978193 251.8314379929117
v 1070.961655304346 2066.859951168549 251.7092360446066
v 1077.269385666964 2057.944198731911 252.2377435574485
v 1099.296466189337 2040.158064541377 253.8844262711125
v 1108.675551015214 2040.211091023177 254.4080363446629
v 1121.285386043739 2040.202366682082 255.1018505928444
v 1077.257422599913 2093.590424050997 251.4345854417904
v 1083.558695266091 2102.49830368972 251.5592952596436
v 1070.956067724183 2084.682572507776 251.3140928917976
v 1064.654681544777 2075.774996596392 251.1980486214083
v 1064.649703586678 2093.597577059149 250.8126867420671
v 1070.950991700167 2102.505632017614 250.9323429246524
v 1058.3484061644 2084.689601063295 250.7025287008304
v 1077.252238176653 2111.413481068735 251.0576902375958
v 1127.593415488236 2031.285567921942 255.6863572195721
v 1114.98374103785 2031.295116185218 254.9999454844178
v 1127.606381977865 1995.634313564959 256.6247066608627
v 1121.30465097675 1986.725674779078 256.5003275183811
v 1102.373095468973 2031.303759078053 254.2934162998536
v 1094.607209663944 2033.435068846765 253.7930407521572
v 1080.389700237339 1995.61312863436 253.8956695568309
v 1077.295086243123 2004.473082096279 253.4852487759127
v 1070.992041168274 1995.564468433004 253.3156181831543
v 1075.717140498539 1988.884606090044 253.7751443661242
v 1077.285698303308 2022.297922385901 253.0597860308234
v 1083.586436623395 2031.203330558232 253.2148416203357
v 1070.984190211929 2013.392222074038 252.8903940148244
v 1064.681681791888 2004.484403714489 252.7176346781162
v 1064.673589149508 2022.310231406792 252.3321767467597
v 1070.975492771676 2031.21581495305 252.4953385866283
v 1058.370951519263 2013.403771207755 252.1638527266617
v 1077.276831692131 2040.121385481419 252.6466656592987
v 1064.687628293864 1986.653430790163 253.171375760838
v 995.3345448374484 2031.25238061348 249.1341311677188
v 1001.634762431582 2040.160595018381 249.1974449841783
v 1009.162091426652 2048.422986179189 249.3302964582498
v 1001.631328239259 2057.981714163905 248.8519836416918
v 995.3275170148261 2066.894553786622 248.4348234352939
v 1000.867268415361 2022.730267559503 249.5274245061273
v 1014.9189682345 2057.614439455977 249.383571560497
v 1007.931727635245 2066.889850822501 248.9333601817016
v 995.3421879066689 1995.608120137927 249.9144970059762
v 1001.642041526103 2004.516352621565 249.9606062329111
v 1007.941942138296 2013.42511391862 249.9971960153916
v 1001.645986371082 1986.694126686945 250.3542918208777
v 1045.750587673259 2049.053549242022 250.8498495102045
v 1039.445204384998 2057.966898433877 250.3937822794761
v 1039.44912913919 2040.14610072002 250.7330920957436
v 1033.147699145481 2031.238125354487 250.6248620650143
v 1039.45270828089 2022.325102470105 251.0636001856138
v 1045.758849176727 2013.411433384948 251.5183922327032
v 1039.455921550395 2004.500767915927 251.4148018966707
v 1033.154699923917 1995.589593027472 251.3606507765315
v 1020.830084246208 2067.101563703784 249.4413425449162
v 1033.140496237995 2066.880187494591 249.9500333543014
v 1026.400603790673 2076.02374546407 249.4956731687143
v 1039.441164893983 2075.788082569634 250.0408948826095
v 1034.480310213902 2101.8125040198 249.3146686854199
v 1038.323315102648 2093.61014952156 249.6339037884311
v 1045.741878673552 2084.695946037136 250.1304199150938
v 1020.529216994204 2102.527925223459 248.7491980169979
v 1026.83288424371 2093.614738204881 249.1708067115934
v 1032.171349740301 2085.208993734914 249.5500168149472
v 1007.925250971026 2102.532999543459 248.2602122636664
v 1014.225392384872 2111.441542112872 248.32391245536
v 987.0024 2040.166467688494 248.6235947450534
v 987.0024 2043.03333908477 248.5664344943638
v 987.0024 2049.077001647909 248.4450069702493
v 987.0024 2055.124011192268 248.3280959819219
v 987.0024 2057.987439122559 248.2714748492432
v 987.0024 2004.236906601832 249.392616964746
v 987.0024 2006.793866522298 249.3372061636954
v 987.0024 2013.51262717613 249.1874129463542
v 987.0024 2019.471031742141 249.0588469972149
v 987.0024 2022.344980860988 248.9960951075085
v 987.0024 2090.77707710468 247.6479185680364
v 987.0024 2084.719116510755 247.7628318132436
v 987.0024 2078.665027324649 247.8780683077732
v 987.0024 2114.299675168623 247.1639551932826
v 987.0024 2093.630223061244 247.591853311504
v 987.0024 2096.481669184915 247.534616935153
v 987.0024 2102.542006278125 247.412105801674
v 987.0024 2108.606100749362 247.2855807445422
v 987.0024 2111.453828407908 247.2251780781874
v 987.0024 2060.849171612215 248.2167162030883
v 987.0024 2037.297871937551 248.6832562725239
v 987.0024 2031.255817901904 248.8065703757719
v 987.0024 2066.89789222281 248.1005034289362
v 987.0024 2072.950021938635 247.9873233100155
v 987.0024 2075.808375205734 247.932279406963
v 987.0024 2025.217157125606 248.9357931109842
v 987.0024 2001.61337113612 249.4499716218502
v 987.0024 1995.515087070826 249.5818552240637
v 987.0024 1986.639112392309 249.7742950533056
v 987.0024 1989.668487976569 249.7094213464136
v 1145.9976 2110.794260189764 254.5990782458044
v 1145.9976 2102.564693953146 254.7994676141306
v 1145.9976 2094.342057124245 255.0038945404482
v 1145.9976 2111.379527940812 254.5848669481439
v 1145.9976 2112.156344033599 254.5664184543853
v 1145.9976 2075.134296523354 255.4931023787068
v 1145.9976 2066.919869864532 255.7066945324189
v 1145.9976 2058.713291430493 255.9245749878578
v 1145.9976 2075.83137047535 255.4748870525331
v 1145.9976 2076.527783577756 255.457109232198
v 1145.9976 2084.742635917078 255.2454178908805
v 1145.9976 2092.964900557078 255.0381890406058
v 1145.9976 2093.653776302078 255.0208413597114
v 1145.9976 2039.469178267856 256.4401370820192
v 1145.9976 2031.271911957265 256.659184327694
v 1145.9976 2023.082828071342 256.8787595332815
v 1145.9976 2040.184151659083 256.4207065618192
v 1145.9976 2040.898359988678 256.4015559760476
v 1145.9976 2049.096280149825 256.1802628953751
v 1145.9976 2057.30234028988 255.9621132698877
v 1145.9976 2058.008176812867 255.9431359257505
v 1145.9976 2003.802072705488 257.3797773173804
v 1145.9976 1995.62267854598 257.5830008403166
v 1145.9976 1987.450827280733 257.782013516696
v 1145.9976 2004.534776113485 257.3613673067032
v 1145.9976 2005.266800328835 257.3425852606841
v 1145.9976 2013.447118088209 257.1314543708563
v 1145.9976 2021.635384975842 256.9173425501261
v 1145.9976 2022.359485507165 256.8980710969312
v 1145.9976 1985.970222153058 257.8172445291474
v 1145.9976 1986.710830832392 257.7997655557188
v 1132.771439020227 1985.104 257.147686601862
v 1135.055171738129 1985.104 257.2682887268602
v 1082.302414299036 1985.104 254.2755978923134
v 1084.63705932328 1985.104 254.4156180324477
v 1097.240963060037 1985.104 255.1790747077775
v 1094.923222185223 1985.104 255.0425366165023
v 1025.740051482003 1985.104 251.3270947160841
v 1027.969094122929 1985.104 251.4202016706826
v 1040.570016200275 1985.104 251.9596873260564
v 1038.35366474355 1985.104 251.8579183977063
v 1122.451865821341 1985.104 256.5991010040572
v 1107.541899467341 1985.104 255.7772746851027
v 1109.847073380571 1985.104 255.9074657531659
v 1120.157371521712 1985.104 256.4745181506286
v 1076.214732413523 1985.104 253.9023073091803
v 1073.765947889567 1985.104 253.7573740654763
v 1065.600726423933 1985.104 253.2669632931386
v 1063.591312137497 1985.104 253.1529656244611
v 1000.521501409279 1985.104 250.3454178409058
v 990.1706092675475 1985.104 249.9363403559525
v 1050.971967419016 1985.104 252.4605660770574
v 1053.174896707243 1985.104 252.5745334705401
v 1002.770437607261 1985.104 250.4346302838375
v 1013.129877165501 1985.104 250.8324807260267
v 1015.369627740452 1985.104 250.9216367393482
v 987.9135371658065 1985.104 249.8450093150426
v 988.6768005814292 1985.104 249.8758943019172
v 987.0024 1985.104 249.8078972376819
v 1145.9976 1985.104 257.8375520668218
v 1145.384850474462 1985.104 257.8058030965125
v 1144.955456255936 1985.104 257.7834591719244
v 1134.164452846562 2114.896 253.8875765462153
v 1137.828340176105 2114.896 254.0768327409495
v 1112.595514666924 2114.896 252.7719790372765
v 1117.55602035253 2114.896 253.0264088848944
v 1087.391167104044 2114.896 251.490021819374
v 1092.328614792246 2114.896 251.7361329957639
v 1062.186356711986 2114.896 250.2680863811907
v 1067.103828225523 2114.896 250.4975432540114
v 1024.382510919785 2114.896 248.6533477846542
v 1029.276306389708 2114.896 248.8507201316716
v 1037.266188423612 2114.896 249.1744214086398
v 1042.597540097796 2114.896 249.3977938491183
v 991.4508390307576 2114.896 247.3359273696696
v 999.1818488715794 2114.896 247.6521270197388
v 1004.059977522197 2114.896 247.8496881539735
v 1129.766616134204 2114.896 253.6586469647445
v 1125.197308114016 2114.896 253.4229614306633
v 1099.993458383249 2114.896 252.1262961136791
v 1104.942136040102 2114.896 252.3773830732707
v 1074.788739871772 2114.896 250.8683903123092
v 1079.715742259731 2114.896 251.1074707243093
v 1054.493247557644 2114.896 249.9148297081963
v 1049.778945496386 2114.896 249.7060360847226
v 1016.668457838623 2114.896 248.3497839519306
v 1011.782317896822 2114.896 248.1548844630173
v 987.8202661888292 2114.896 247.1849255831683
v 987.0024000000001 2114.896 247.1509091177208
v 1143.724357010464 2114.896 254.3832238970843
v 1144.059429545238 2114.896 254.4006362051226
v 1145.9976 2114.896 254.500751224124
f 6 5 4
f 5 7 4
f 10 9 8
f 10 5 9
f 12 9 11
f 12 8 9
f 15 14 13
f 15 16 14
f 19 18 17
f 19 20 18
f 26 25 24
f 25 27 24
f 31 30 29
f 30 32 29
f 35 34 33
f 34 36 33
f 36 37 33
f 37 30 33
f 30 38 33
f 38 35 33
f 41 40 39
f 40 42 39
f 42 43 39
f 43 44 39
f 44 36 39
f 36 41 39
f 47 46 45
f 46 48 45
f 48 41 45
f 41 34 45
f 34 49 45
f 49 47 45
f 52 51 50
f 52 53 51
f 64 63 62
f 64 65 63
f 68 67 66
f 68 69 67
f 72 71 70
f 72 73 71
f 76 75 74
f 76 77 75
f 80 79 78
f 80 81 79
f 84 83 82
f 84 85 83
f 88 87 86
f 88 89 87
f 96 95 94
f 96 97 95
f 100 99 98
f 100 101 99
f 104 103 102
f 102 103 105
f 108 109 106
f 109 103 106
f 103 110 106
f 110 107 106
f 2 117 1
f 117 6 1
f 116 117 2
f 117 118 6
f 118 5 6
f 116 119 117
f 119 118 117
f 21 119 116
f 7 120 3
f 120 26 3
f 5 10 7
f 10 120 7
f 120 121 26
f 121 25 26
f 10 122 120
f 122 121 120
f 118 9 5
f 119 11 118
f 11 9 118
f 8 122 10
f 124 123 11
f 123 12 11
f 119 124 11
f 123 18 12
f 18 13 12
f 13 8 12
f 13 14 8
f 14 122 8
f 21 124 119
f 125 17 123
f 17 18 123
f 124 125 123
f 18 20 13
f 20 15 13
f 16 126 14
f 122 14 126
f 126 121 122
f 125 124 127
f 21 127 124
f 20 128 15
f 128 50 15
f 50 16 15
f 50 51 16
f 51 129 16
f 126 16 129
f 129 130 126
f 130 121 126
f 19 131 20
f 131 128 20
f 131 132 128
f 132 133 128
f 133 50 128
f 133 52 50
f 53 134 51
f 129 51 134
f 134 135 129
f 135 130 129
f 135 136 130
f 136 25 130
f 25 121 130
f 138 137 17
f 137 19 17
f 125 138 17
f 137 139 19
f 139 131 19
f 139 140 131
f 140 132 131
f 22 138 125
f 127 22 125
f 142 141 137
f 141 139 137
f 138 142 137
f 141 143 139
f 143 140 139
f 142 138 144
f 22 144 138
f 93 142 144
f 27 145 23
f 145 31 23
f 25 136 27
f 136 145 27
f 145 38 31
f 38 30 31
f 136 146 145
f 146 38 145
f 135 146 136
f 32 147 28
f 147 54 28
f 30 37 32
f 37 147 32
f 147 148 54
f 37 44 147
f 44 148 147
f 146 35 38
f 36 44 37
f 135 149 146
f 149 35 146
f 149 49 35
f 49 34 35
f 34 41 36
f 43 148 44
f 134 150 149
f 150 49 149
f 135 134 149
f 150 47 49
f 48 40 41
f 48 151 40
f 151 55 40
f 55 42 40
f 46 152 48
f 152 151 48
f 152 153 151
f 153 154 151
f 55 151 154
f 156 155 47
f 155 46 47
f 150 156 47
f 155 157 46
f 157 152 46
f 157 158 152
f 158 153 152
f 53 156 150
f 134 53 150
f 160 159 155
f 159 157 155
f 156 160 155
f 159 161 157
f 161 158 157
f 160 156 162
f 53 162 156
f 133 63 52
f 63 162 52
f 162 53 52
f 132 62 133
f 62 63 133
f 65 162 63
f 65 160 162
f 153 163 154
f 164 165 56
f 165 57 56
f 165 166 57
f 166 167 57
f 167 58 57
f 167 168 58
f 61 169 164
f 88 164 169
f 88 165 164
f 86 165 88
f 166 165 86
f 86 84 166
f 84 170 166
f 170 167 166
f 170 171 167
f 171 168 167
f 171 109 168
f 109 108 168
f 172 173 59
f 173 60 59
f 173 174 60
f 174 169 60
f 169 61 60
f 92 175 172
f 175 80 172
f 80 173 172
f 80 78 173
f 78 174 173
f 174 89 169
f 89 88 169
f 78 76 174
f 76 89 174
f 99 101 62
f 101 64 62
f 132 99 62
f 101 176 64
f 176 66 64
f 66 65 64
f 66 67 65
f 67 160 65
f 140 99 132
f 100 177 101
f 177 176 101
f 176 178 66
f 178 68 66
f 69 159 67
f 159 160 67
f 140 98 99
f 177 83 176
f 83 178 176
f 178 179 68
f 179 180 68
f 180 69 68
f 180 181 69
f 181 161 69
f 161 159 69
f 83 85 178
f 85 179 178
f 85 87 179
f 87 74 179
f 74 180 179
f 74 75 180
f 75 181 180
f 75 182 181
f 182 70 181
f 70 161 181
f 70 158 161
f 182 72 70
f 71 158 70
f 182 183 72
f 183 91 72
f 91 73 72
f 163 71 73
f 163 153 71
f 153 158 71
f 75 77 182
f 77 183 182
f 183 90 91
f 77 79 183
f 79 90 183
f 87 89 74
f 89 76 74
f 78 77 76
f 78 79 77
f 85 86 87
f 81 90 79
f 175 81 80
f 82 184 170
f 84 82 170
f 83 177 82
f 177 185 82
f 184 82 185
f 86 85 84
f 185 186 184
f 105 171 184
f 171 170 184
f 186 105 184
f 100 185 177
f 100 187 185
f 187 186 185
f 94 95 93
f 95 142 93
f 96 94 112
f 97 141 95
f 141 142 95
f 96 112 188
f 189 96 188
f 189 97 96
f 189 190 97
f 190 143 97
f 143 141 97
f 111 188 112
f 111 191 188
f 191 192 188
f 192 189 188
f 193 190 189
f 192 193 189
f 193 187 190
f 187 98 190
f 98 143 190
f 98 140 143
f 187 100 98
f 186 187 193
f 105 186 102
f 193 102 186
f 102 193 192
f 192 104 102
f 103 109 105
f 109 171 105
f 191 104 192
f 194 110 104
f 110 103 104
f 191 194 104
f 195 194 191
f 111 195 191
f 114 115 194
f 115 110 194
f 195 114 194
f 115 107 110
f 114 113 115
f 196 56 197
f 57 198 197
f 56 57 197
f 58 199 198
f 57 58 198
f 58 200 199
f 201 59 202
f 59 203 202
f 60 203 59
f 61 204 203
f 60 61 203
f 61 205 204
f 106 206 207
f 107 206 106
f 106 207 208
f 208 108 106
f 210 107 211
f 115 212 211
f 107 115 211
f 113 213 212
f 115 113 212
f 113 214 213
f 215 200 58
f 56 196 216
f 56 216 217
f 217 164 56
f 58 218 215
f 168 218 58
f 168 219 218
f 108 219 168
f 108 220 219
f 61 217 221
f 164 217 61
f 205 61 221
f 59 201 222
f 59 222 223
f 172 59 223
f 224 92 225
f 172 223 225
f 92 172 225
f 210 206 107
f 220 108 208
f 209 214 113
f 226 1 227
f 1 228 227
f 231 3 232
f 3 233 232
f 4 234 235
f 7 234 4
f 235 236 4
f 236 237 4
f 4 237 238
f 238 6 4
f 239 23 240
f 23 241 240
f 24 242 243
f 27 242 24
f 243 244 24
f 244 245 24
f 24 245 246
f 246 26 24
f 247 28 248
f 28 249 248
f 29 250 251
f 32 250 29
f 251 252 29
f 252 253 29
f 29 253 254
f 254 31 29
f 1 226 229
f 2 1 229
f 6 238 228
f 1 6 228
f 3 231 234
f 7 3 234
f 26 246 233
f 3 26 233
f 23 239 242
f 27 23 242
f 31 254 241
f 23 31 241
f 28 247 250
f 32 28 250
f 54 256 249
f 28 54 249
f 54 257 258
f 55 259 260
f 261 42 262
f 55 260 262
f 42 55 262
f 90 263 264
f 265 91 266
f 90 264 266
f 91 90 266
f 54 267 257
f 148 267 54
f 42 261 268
f 43 42 268
f 268 269 43
f 43 269 270
f 270 148 43
f 55 271 259
f 154 271 55
f 267 148 270
f 154 272 271
f 154 273 272
f 163 273 154
f 163 274 273
f 92 276 275
f 275 175 92
f 73 265 277
f 91 265 73
f 277 278 73
f 73 278 274
f 274 163 73
f 81 279 280
f 175 279 81
f 280 281 81
f 81 281 263
f 263 90 81
f 275 279 175
f 92 282 283
f 283 276 92
f 224 284 282
f 282 92 224
f 285 255 286
f 256 287 286
f 286 255 256
f 54 258 287
f 256 54 287
f 288 2 289
f 290 21 291
f 292 22 293
f 294 93 295
f 296 111 297
f 112 298 297
f 111 112 297
f 112 299 298
f 114 301 300
f 113 114 300
f 114 302 301
f 2 288 303
f 303 116 2
f 304 116 303
f 116 304 291
f 291 21 116
f 305 127 306
f 21 290 306
f 127 21 306
f 127 305 293
f 293 22 127
f 307 144 308
f 22 292 308
f 144 22 308
f 144 307 295
f 295 93 144
f 94 309 310
f 93 294 309
f 94 93 309
f 94 310 299
f 112 94 299
f 111 296 311
f 311 195 111
f 312 195 311
f 195 312 302
f 302 114 195
f 313 314 209
f 113 300 313
f 209 113 313
f 230 316 315
f 315 229 230
f 229 315 289
f 2 229 289
f 230 317 316
